<svg xmlns="http://www.w3.org/2000/svg" version="1.1" xmlns:xlink="http://www.w3.org/1999/xlink" width="512" height="512" x="0" y="0" viewBox="0 0 128 128" style="enable-background:new 0 0 512 512" xml:space="preserve" class=""><g><path d="M90.96 84.878H21.192L13.726 38.33h84.701l-2.485 15.488-3.949-.634 1.74-10.854H18.419l6.184 38.548H87.55l2.357-14.69 3.949.632zM36.061 108.001c-5.693 0-10.325-4.632-10.325-10.325 0-5.691 4.632-10.322 10.325-10.322 5.692 0 10.324 4.631 10.324 10.322 0 5.693-4.632 10.325-10.324 10.325zm0-16.647c-3.487 0-6.325 2.836-6.325 6.322 0 3.488 2.838 6.325 6.325 6.325s6.324-2.837 6.324-6.325a6.33 6.33 0 0 0-6.324-6.322zM76.093 108.001c-5.692 0-10.324-4.632-10.324-10.325 0-5.691 4.632-10.322 10.324-10.322s10.324 4.631 10.324 10.322c0 5.693-4.632 10.325-10.324 10.325zm0-16.647a6.33 6.33 0 0 0-6.324 6.322c0 3.488 2.837 6.325 6.324 6.325s6.324-2.837 6.324-6.325a6.33 6.33 0 0 0-6.324-6.322z" fill="#000000" opacity="1" data-original="#000000"></path><path d="M96.057 42.331a1.999 1.999 0 0 1-1.982-2.284l3.02-21.141h15.146a2 2 0 0 1 0 4h-11.677l-2.529 17.707c-.143.997-1 1.718-1.978 1.718zM112.239 55.501H76.478a2 2 0 0 1 0-4h35.762a2 2 0 0 1-.001 4zM97.256 68.501H72.477a2 2 0 0 1 0-4h24.779a2 2 0 0 1 0 4z" fill="#000000" opacity="1" data-original="#000000"></path></g></svg>