<svg xmlns="http://www.w3.org/2000/svg" version="1.1" xmlns:xlink="http://www.w3.org/1999/xlink" width="512" height="512" x="0" y="0" viewBox="0 0 8.467 8.467" style="enable-background:new 0 0 512 512" xml:space="preserve" class=""><g><path stroke-width=".945" d="M6.456 1.795a.227.227 0 0 0 .03.295l.464.413h-.725c-.456 0-.895.203-1.218.565l-.904 1.017L3.196 5.1a1.279 1.279 0 0 1-.953.442H.981c-.103 0-.187.094-.187.21 0 .116.084.21.187.21h1.262c.457 0 .896-.205 1.219-.566l.904-1.016.906-1.015c.253-.283.596-.442.953-.442h.725l-.465.414a.227.227 0 0 0-.03.295.174.174 0 0 0 .265.035l.883-.79a.226.226 0 0 0 0-.328l-.883-.787c-.084-.074-.193-.06-.264.033zM.98 2.503c-.103 0-.187.095-.187.21 0 .117.084.21.187.21h1.26c.359 0 .704.16.957.445l.451.505c.073.08.19.08.264 0a.228.228 0 0 0 0-.297l-.451-.506a1.637 1.637 0 0 0-1.22-.567zM4.554 4.59a.228.228 0 0 0-.002.296l.455.51c.324.362.763.566 1.22.566h.723l-.465.413a.227.227 0 0 0-.03.296c.066.09.184.105.265.032l.883-.787a.226.226 0 0 0 0-.328l-.883-.79a.174.174 0 0 0-.264.035.228.228 0 0 0 .03.293l.465.416h-.724c-.358 0-.703-.16-.957-.444l-.453-.508c-.1-.1-.212-.053-.263 0z" fill="#000000" opacity="1" data-original="#000000" class=""></path></g></svg>