<svg xmlns="http://www.w3.org/2000/svg" style="display: none;">
    <symbol id="arrowLeft" viewBox="0 0 24 24">
    <svg xmlns="http://www.w3.org/2000/svg" version="1.1" xmlns:xlink="http://www.w3.org/1999/xlink" width="512" height="512" x="0" y="0" viewBox="0 0 512 512" style="enable-background:new 0 0 512 512" xml:space="preserve" class=""><g><path d="M437.02 330.98c-27.883-27.882-61.071-48.523-97.281-61.018C378.521 243.251 404 198.548 404 148 404 66.393 337.607 0 256 0S108 66.393 108 148c0 50.548 25.479 95.251 64.262 121.962-36.21 12.495-69.398 33.136-97.281 61.018C26.629 379.333 0 443.62 0 512h40c0-119.103 96.897-216 216-216s216 96.897 216 216h40c0-68.38-26.629-132.667-74.98-181.02zM256 256c-59.551 0-108-48.448-108-108S196.449 40 256 40s108 48.448 108 108-48.449 108-108 108z" fill="#000000" opacity="1" data-original="#000000" class=""></path></g></svg>
    </symbol>
   <symbol id="arrowRight" viewBox="0 0 128 128">
        <path d="M44 108a3.988 3.988 0 0 1-2.828-1.172 3.997 3.997 0 0 1 0-5.656L78.344 64 41.172 26.828c-1.563-1.563-1.563-4.094 0-5.656s4.094-1.563 5.656 0l40 40a3.997 3.997 0 0 1 0 5.656l-40 40A3.988 3.988 0 0 1 44 108z" fill="currentColor"></path>
    </symbol>
    <symbol id="shuffile">
   <svg xmlns="http://www.w3.org/2000/svg" version="1.1" xmlns:xlink="http://www.w3.org/1999/xlink" width="512" height="512" x="0" y="0" viewBox="0 0 8.467 8.467" style="enable-background:new 0 0 512 512" xml:space="preserve" class=""><g><path stroke-width=".945" d="M6.456 1.795a.227.227 0 0 0 .03.295l.464.413h-.725c-.456 0-.895.203-1.218.565l-.904 1.017L3.196 5.1a1.279 1.279 0 0 1-.953.442H.981c-.103 0-.187.094-.187.21 0 .116.084.21.187.21h1.262c.457 0 .896-.205 1.219-.566l.904-1.016.906-1.015c.253-.283.596-.442.953-.442h.725l-.465.414a.227.227 0 0 0-.03.295.174.174 0 0 0 .265.035l.883-.79a.226.226 0 0 0 0-.328l-.883-.787c-.084-.074-.193-.06-.264.033zM.98 2.503c-.103 0-.187.095-.187.21 0 .117.084.21.187.21h1.26c.359 0 .704.16.957.445l.451.505c.073.08.19.08.264 0a.228.228 0 0 0 0-.297l-.451-.506a1.637 1.637 0 0 0-1.22-.567zM4.554 4.59a.228.228 0 0 0-.002.296l.455.51c.324.362.763.566 1.22.566h.723l-.465.413a.227.227 0 0 0-.03.296c.066.09.184.105.265.032l.883-.787a.226.226 0 0 0 0-.328l-.883-.79a.174.174 0 0 0-.264.035.228.228 0 0 0 .03.293l.465.416h-.724c-.358 0-.703-.16-.957-.444l-.453-.508c-.1-.1-.212-.053-.263 0z" fill="#000000" opacity="1" data-original="#000000" class=""></path></g></svg>
    </symbol>
    <symbol id="shoppingCardLeft">
   <svg xmlns="http://www.w3.org/2000/svg" version="1.1" xmlns:xlink="http://www.w3.org/1999/xlink" width="512" height="512" x="0" y="0" viewBox="0 0 128 128" style="enable-background:new 0 0 512 512" xml:space="preserve" class=""><g><path d="M90.96 84.878H21.192L13.726 38.33h84.701l-2.485 15.488-3.949-.634 1.74-10.854H18.419l6.184 38.548H87.55l2.357-14.69 3.949.632zM36.061 108.001c-5.693 0-10.325-4.632-10.325-10.325 0-5.691 4.632-10.322 10.325-10.322 5.692 0 10.324 4.631 10.324 10.322 0 5.693-4.632 10.325-10.324 10.325zm0-16.647c-3.487 0-6.325 2.836-6.325 6.322 0 3.488 2.838 6.325 6.325 6.325s6.324-2.837 6.324-6.325a6.33 6.33 0 0 0-6.324-6.322zM76.093 108.001c-5.692 0-10.324-4.632-10.324-10.325 0-5.691 4.632-10.322 10.324-10.322s10.324 4.631 10.324 10.322c0 5.693-4.632 10.325-10.324 10.325zm0-16.647a6.33 6.33 0 0 0-6.324 6.322c0 3.488 2.837 6.325 6.324 6.325s6.324-2.837 6.324-6.325a6.33 6.33 0 0 0-6.324-6.322z" fill="#000000" opacity="1" data-original="#000000"></path><path d="M96.057 42.331a1.999 1.999 0 0 1-1.982-2.284l3.02-21.141h15.146a2 2 0 0 1 0 4h-11.677l-2.529 17.707c-.143.997-1 1.718-1.978 1.718zM112.239 55.501H76.478a2 2 0 0 1 0-4h35.762a2 2 0 0 1-.001 4zM97.256 68.501H72.477a2 2 0 0 1 0-4h24.779a2 2 0 0 1 0 4z" fill="#000000" opacity="1" data-original="#000000"></path></g></svg>
    </symbol>
     <symbol id="shoping">
  <svg xmlns="http://www.w3.org/2000/svg" version="1.1" xmlns:xlink="http://www.w3.org/1999/xlink" width="512" height="512" x="0" y="0" viewBox="0 0 208.955 208.955" style="enable-background:new 0 0 512 512" xml:space="preserve" class=""><g><path d="M190.85 200.227 178.135 58.626a7.5 7.5 0 0 0-7.47-6.829h-26.221V39.971c0-22.04-17.93-39.971-39.969-39.971-22.038 0-39.966 17.931-39.966 39.971v11.826H38.27a7.5 7.5 0 0 0-7.47 6.829L18.035 200.784a7.5 7.5 0 0 0 7.47 8.17h157.946a7.5 7.5 0 0 0 7.399-8.727zM79.509 39.971c0-13.769 11.2-24.971 24.967-24.971 13.768 0 24.969 11.202 24.969 24.971v11.826H79.509V39.971zm-45.8 153.984L45.127 66.797h19.382v13.412a7.5 7.5 0 0 0 7.5 7.5 7.5 7.5 0 0 0 7.5-7.5V66.797h49.936v13.412a7.5 7.5 0 0 0 7.5 7.5 7.5 7.5 0 0 0 7.5-7.5V66.797h19.364l11.418 127.158H33.709z" fill="#000000" opacity="1" data-original="#000000" class=""></path></g></svg>
    </symbol>
    <symbol id="search">
  <svg xmlns="http://www.w3.org/2000/svg" version="1.1" xmlns:xlink="http://www.w3.org/1999/xlink" x="0" y="0" viewBox="0 0 6.35 6.35" style="enable-background:new 0 0 512 512" xml:space="preserve" class=""><g><path d="M2.894.511a2.384 2.384 0 0 0-2.38 2.38 2.386 2.386 0 0 0 2.38 2.384c.56 0 1.076-.197 1.484-.523l.991.991a.265.265 0 0 0 .375-.374l-.991-.992a2.37 2.37 0 0 0 .523-1.485C5.276 1.58 4.206.51 2.894.51zm0 .53c1.026 0 1.852.825 1.852 1.85S3.92 4.746 2.894 4.746s-1.851-.827-1.851-1.853.825-1.852 1.851-1.852z" paint-order="stroke fill markers" class=""></path></g></svg>
    </symbol>
    <symbol id="like">
 <svg xmlns="http://www.w3.org/2000/svg" version="1.1" xmlns:xlink="http://www.w3.org/1999/xlink" width="30" height="30" x="0" y="0" viewBox="0 0 512.001 512" style="enable-background:new 0 0 512 512" xml:space="preserve" class=""><g><path d="M256 455.516c-7.29 0-14.316-2.641-19.793-7.438-20.684-18.086-40.625-35.082-58.219-50.074l-.09-.078c-51.582-43.957-96.125-81.918-127.117-119.313C16.137 236.81 0 197.172 0 153.871c0-42.07 14.426-80.883 40.617-109.293C67.121 15.832 103.488 0 143.031 0c29.555 0 56.621 9.344 80.446 27.77C235.5 37.07 246.398 48.453 256 61.73c9.605-13.277 20.5-24.66 32.527-33.96C312.352 9.344 339.418 0 368.973 0c39.539 0 75.91 15.832 102.414 44.578C497.578 72.988 512 111.801 512 153.871c0 43.3-16.133 82.938-50.777 124.738-30.993 37.399-75.532 75.356-127.106 119.309-17.625 15.016-37.597 32.039-58.328 50.168a30.046 30.046 0 0 1-19.789 7.43zM143.031 29.992c-31.066 0-59.605 12.399-80.367 34.914-21.07 22.856-32.676 54.45-32.676 88.965 0 36.418 13.535 68.988 43.883 105.606 29.332 35.394 72.961 72.574 123.477 115.625l.093.078c17.66 15.05 37.68 32.113 58.516 50.332 20.961-18.254 41.012-35.344 58.707-50.418 50.512-43.051 94.137-80.223 123.469-115.617 30.344-36.618 43.879-69.188 43.879-105.606 0-34.516-11.606-66.11-32.676-88.965-20.758-22.515-49.3-34.914-80.363-34.914-22.758 0-43.653 7.235-62.102 21.5-16.441 12.719-27.894 28.797-34.61 40.047-3.452 5.785-9.53 9.238-16.261 9.238s-12.809-3.453-16.262-9.238c-6.71-11.25-18.164-27.328-34.61-40.047-18.448-14.265-39.343-21.5-62.097-21.5zm0 0" fill="#000000" opacity="1" data-original="#000000" class=""></path></g></svg>
    </symbol>
    <symbol id="arrowup">
 <svg xmlns="http://www.w3.org/2000/svg" version="1.1" xmlns:xlink="http://www.w3.org/1999/xlink" width="512" height="512" x="0" y="0" viewBox="0 0 2000 2000" style="enable-background:new 0 0 512 512" xml:space="preserve" class=""><g><path d="M1744 1436c-16.4 0-32.8-6.2-45.3-18.7L1000 718.5l-698.7 698.7c-25 25-65.5 25-90.5 0s-25-65.5 0-90.5l744-744c25-25 65.5-25 90.5 0l744 744c25 25 25 65.5 0 90.5-12.5 12.6-28.9 18.8-45.3 18.8z" fill="#000000" opacity="1" data-original="#000000"></path></g></svg>
    </symbol>
     <symbol id="arrowRight">
 <svg xmlns="http://www.w3.org/2000/svg" version="1.1" xmlns:xlink="http://www.w3.org/1999/xlink" width="512" height="512" x="0" y="0" viewBox="0 0 128 128" style="enable-background:new 0 0 512 512" xml:space="preserve" class=""><g><path d="M44 108a3.988 3.988 0 0 1-2.828-1.172 3.997 3.997 0 0 1 0-5.656L78.344 64 41.172 26.828c-1.563-1.563-1.563-4.094 0-5.656s4.094-1.563 5.656 0l40 40a3.997 3.997 0 0 1 0 5.656l-40 40A3.988 3.988 0 0 1 44 108z" fill="#000000" opacity="1" data-original="#000000"></path></g></svg>
    </symbol>
      <symbol id="arrowLeft">
<svg xmlns="http://www.w3.org/2000/svg" version="1.1" xmlns:xlink="http://www.w3.org/1999/xlink" width="512" height="512" x="0" y="0" viewBox="0 0 128 128" style="enable-background:new 0 0 512 512" xml:space="preserve" class=""><g><path d="M84 108a3.988 3.988 0 0 1-2.828-1.172l-40-40a3.997 3.997 0 0 1 0-5.656l40-40c1.563-1.563 4.094-1.563 5.656 0s1.563 4.094 0 5.656L49.656 64l37.172 37.172a3.997 3.997 0 0 1 0 5.656A3.988 3.988 0 0 1 84 108z" fill="#000000" opacity="1" data-original="#000000"></path></g></svg>
    </symbol>

</svg>